<svg width="375" height="250" viewBox="0 0 375 250" fill="none" xmlns="http://www.w3.org/2000/svg">
<g clip-path="url(#clip0_103_803)">
<path fill-rule="evenodd" clip-rule="evenodd" d="M242.405 118.195C242.405 149.522 218.823 178.813 187.129 185.925C155.436 178.813 131.854 149.522 131.854 118.195V93.5883C131.854 90.8473 132.671 88.1687 134.201 85.8942C135.731 83.6198 137.904 81.8528 140.442 80.8188L174.989 66.7046C182.77 63.5242 191.488 63.5242 199.269 66.7046L233.816 80.8188C239.012 82.9438 242.405 87.9867 242.405 93.5883V118.195Z" fill="#4FFFB5"/>
<path d="M208.088 111.939L183.905 136.122L169.395 121.612" stroke="white" stroke-width="16.625" stroke-linecap="round" stroke-linejoin="round"/>
<path d="M187.281 49.0108C193.987 49.0108 199.423 43.575 199.423 36.8696C199.423 30.1642 193.987 24.7283 187.281 24.7283C180.576 24.7283 175.14 30.1642 175.14 36.8696C175.14 43.575 180.576 49.0108 187.281 49.0108Z" fill="#4FFFB5"/>
<path d="M263.296 125.026C263.296 131.731 268.731 137.167 275.437 137.167C282.142 137.167 287.578 131.731 287.578 125.026C287.578 118.32 282.142 112.885 275.437 112.885C268.731 112.885 263.296 118.32 263.296 125.026Z" fill="#4FFFB5"/>
<path d="M187.281 225.323C193.987 225.323 199.423 219.887 199.423 213.182C199.423 206.477 193.987 201.041 187.281 201.041C180.576 201.041 175.14 206.477 175.14 213.182C175.14 219.887 180.576 225.323 187.281 225.323Z" fill="#4FFFB5"/>
<path d="M86.9831 125.026C86.9831 131.731 92.4189 137.167 99.1244 137.167C105.83 137.167 111.266 131.731 111.266 125.026C111.266 118.32 105.83 112.885 99.1244 112.885C92.4189 112.885 86.9831 118.32 86.9831 125.026Z" fill="#4FFFB5"/>
<path d="M117.503 41.9879L140.744 65.2292M103.716 55.7754L126.957 79.0167M152.365 53.6088L136.871 38.1146M115.336 90.6371L99.8423 75.1429M163.986 41.9879L160.112 38.1146M103.716 102.258L99.8423 98.3842M117.503 207.82L140.744 184.578M103.716 194.033L126.957 170.791M152.365 196.199L136.871 211.693M115.336 159.17L99.8423 174.665M163.986 207.82L160.112 211.693M103.716 147.55L99.8423 151.423M259.455 41.9879L236.214 65.2292M273.243 55.7754L250.001 79.0167M224.593 53.6088L240.087 38.1146M261.622 90.6375L277.116 75.1429M212.973 41.9879L216.846 38.1146M273.243 102.258L277.116 98.3846M259.455 207.82L236.214 184.578M273.243 194.033L250.001 170.791M224.593 196.199L240.087 211.693M261.622 159.17L277.116 174.665M212.973 207.82L216.846 211.693M273.243 147.55L277.116 151.423" stroke="#E1E4E5" stroke-width="4" stroke-linecap="round" stroke-linejoin="round"/>
<path fill-rule="evenodd" clip-rule="evenodd" d="M61.4919 95.3871H63.0315C63.404 95.3871 63.7036 95.69 63.7036 96.0592V97.5988C63.7036 97.9713 63.4007 98.2708 63.0315 98.2708H61.4919C61.3139 98.2701 61.1434 98.199 61.0175 98.0731C60.8916 97.9473 60.8206 97.7768 60.8198 97.5988V96.0592C60.8196 95.9708 60.8368 95.8834 60.8705 95.8017C60.9042 95.7201 60.9537 95.6459 61.0162 95.5834C61.0786 95.521 61.1528 95.4715 61.2345 95.4378C61.3161 95.4041 61.4036 95.3869 61.4919 95.3871ZM66.8302 95.3871H68.3698C68.5478 95.3879 68.7183 95.4589 68.8442 95.5848C68.9701 95.7107 69.0411 95.8812 69.0419 96.0592V97.5988C69.0419 97.9713 68.739 98.2708 68.3698 98.2708H66.8302C66.6522 98.2701 66.4817 98.199 66.3559 98.0731C66.23 97.9473 66.1589 97.7768 66.1582 97.5988V96.0592C66.1589 95.8812 66.23 95.7107 66.3559 95.5848C66.4817 95.4589 66.6522 95.3879 66.8302 95.3871ZM72.1723 95.3871H73.7119C73.8899 95.3879 74.0604 95.4589 74.1863 95.5848C74.3122 95.7107 74.3832 95.8812 74.384 96.0592V97.5988C74.384 97.9713 74.0811 98.2708 73.7119 98.2708H72.1723C71.9943 98.2701 71.8238 98.199 71.6979 98.0731C71.5721 97.9473 71.501 97.7768 71.5002 97.5988V96.0592C71.5 95.9708 71.5173 95.8834 71.551 95.8017C71.5846 95.7201 71.6342 95.6459 71.6966 95.5834C71.7591 95.521 71.8332 95.4715 71.9149 95.4378C71.9965 95.4041 72.084 95.3869 72.1723 95.3871ZM77.5107 95.3871H79.0502C79.2282 95.3879 79.3988 95.4589 79.5246 95.5848C79.6505 95.7107 79.7216 95.8812 79.7223 96.0592V97.5988C79.7223 97.9713 79.4194 98.2708 79.0502 98.2708H77.5107C77.3321 98.2709 77.1607 98.2003 77.0341 98.0743C76.9075 97.9483 76.836 97.7773 76.8352 97.5988V96.0592C76.8372 95.881 76.9091 95.7106 77.0354 95.5849C77.1618 95.4592 77.3324 95.3882 77.5107 95.3871ZM82.8494 95.3871H84.3894C84.7615 95.3871 85.0644 95.69 85.0644 96.0592V97.5988C85.0644 97.9713 84.7615 98.2708 84.3894 98.2708H82.8494C82.6714 98.2701 82.5009 98.199 82.375 98.0731C82.2491 97.9473 82.1781 97.7768 82.1773 97.5988V96.0592C82.1781 95.8812 82.2491 95.7107 82.375 95.5848C82.5009 95.4589 82.6714 95.3879 82.8494 95.3871ZM67.0257 101.208H68.5652C68.7433 101.209 68.9138 101.28 69.0396 101.406C69.1655 101.532 69.2366 101.702 69.2373 101.88V103.423C69.2366 103.601 69.1655 103.772 69.0396 103.898C68.9138 104.024 68.7433 104.095 68.5652 104.095H67.0257C66.8474 104.095 66.6766 104.024 66.5505 103.898C66.4245 103.772 66.3537 103.602 66.3536 103.423V101.884C66.353 101.795 66.3699 101.707 66.4034 101.625C66.437 101.543 66.4864 101.469 66.5489 101.406C66.6114 101.343 66.6857 101.293 66.7675 101.259C66.8493 101.226 66.9371 101.208 67.0257 101.208ZM72.3644 101.208H73.904C74.082 101.209 74.2525 101.28 74.3784 101.406C74.5043 101.532 74.5753 101.702 74.5761 101.88V103.423C74.5753 103.601 74.5043 103.772 74.3784 103.898C74.2525 104.024 74.082 104.095 73.904 104.095H72.3644C72.1864 104.095 72.0159 104.024 71.89 103.898C71.7641 103.772 71.6931 103.601 71.6923 103.423V101.884C71.6917 101.795 71.7087 101.707 71.7422 101.625C71.7757 101.543 71.8251 101.469 71.8876 101.406C71.9501 101.343 72.0244 101.293 72.1062 101.259C72.1881 101.226 72.2758 101.208 72.3644 101.208ZM77.7036 101.208H79.2432C79.4217 101.208 79.5931 101.279 79.7197 101.405C79.8463 101.531 79.9178 101.702 79.9186 101.88V103.423C79.9178 103.602 79.8463 103.773 79.7197 103.899C79.5931 104.025 79.4217 104.096 79.2432 104.095H77.7036C77.5256 104.095 77.3551 104.024 77.2292 103.898C77.1033 103.772 77.0323 103.601 77.0315 103.423V101.884C77.0314 101.705 77.102 101.534 77.228 101.407C77.354 101.281 77.525 101.209 77.7036 101.208ZM72.1723 89.1333H73.7119C73.8899 89.1341 74.0604 89.2052 74.1863 89.331C74.3122 89.4569 74.3832 89.6274 74.384 89.8054V91.345C74.384 91.7175 74.0811 92.0171 73.7119 92.0171H72.1723C71.9943 92.0163 71.8238 91.9453 71.6979 91.8194C71.5721 91.6935 71.501 91.523 71.5002 91.345V89.8054C71.5 89.7171 71.5173 89.6296 71.551 89.548C71.5846 89.4663 71.6342 89.3921 71.6966 89.3297C71.7591 89.2672 71.8332 89.2177 71.9149 89.184C71.9965 89.1503 72.084 89.1331 72.1723 89.1333ZM77.5107 89.1333H79.0502C79.2282 89.1341 79.3988 89.2052 79.5246 89.331C79.6505 89.4569 79.7216 89.6274 79.7223 89.8054V91.345C79.7223 91.7175 79.4194 92.0171 79.0502 92.0171H77.5107C77.3321 92.0172 77.1607 91.9465 77.0341 91.8206C76.9075 91.6946 76.836 91.5236 76.8352 91.345V89.8054C76.8372 89.6272 76.9091 89.4569 77.0354 89.3312C77.1618 89.2055 77.3324 89.1344 77.5107 89.1333ZM295.698 142.423H297.238C297.61 142.423 297.91 142.725 297.91 143.095V144.634C297.91 145.007 297.607 145.306 297.238 145.306H295.698C295.52 145.305 295.35 145.234 295.224 145.109C295.098 144.983 295.027 144.812 295.026 144.634V143.095C295.026 143.006 295.043 142.919 295.077 142.837C295.111 142.756 295.16 142.681 295.223 142.619C295.285 142.557 295.359 142.507 295.441 142.473C295.522 142.44 295.61 142.422 295.698 142.423ZM301.036 142.423H302.576C302.754 142.423 302.925 142.494 303.05 142.62C303.176 142.746 303.247 142.917 303.248 143.095V144.634C303.248 145.007 302.945 145.306 302.576 145.306H301.036C300.858 145.305 300.688 145.234 300.562 145.109C300.436 144.983 300.365 144.812 300.364 144.634V143.095C300.365 142.917 300.436 142.746 300.562 142.62C300.688 142.494 300.858 142.423 301.036 142.423ZM306.379 142.423H307.918C308.096 142.423 308.267 142.494 308.393 142.62C308.518 142.746 308.589 142.917 308.59 143.095V144.634C308.59 145.007 308.287 145.306 307.918 145.306H306.379C306.201 145.305 306.03 145.234 305.904 145.109C305.778 144.983 305.707 144.812 305.706 144.634V143.095C305.706 143.006 305.723 142.919 305.757 142.837C305.791 142.755 305.84 142.681 305.903 142.619C305.965 142.556 306.039 142.507 306.121 142.473C306.203 142.44 306.29 142.422 306.379 142.423ZM311.717 142.423H313.257C313.435 142.423 313.605 142.494 313.731 142.62C313.857 142.746 313.928 142.917 313.929 143.095V144.634C313.929 145.007 313.626 145.306 313.257 145.306H311.717C311.538 145.306 311.367 145.236 311.241 145.11C311.114 144.984 311.043 144.813 311.042 144.634V143.095C311.044 142.916 311.116 142.746 311.242 142.62C311.368 142.495 311.539 142.424 311.717 142.423ZM317.056 142.423H318.596C318.774 142.422 318.946 142.493 319.072 142.619C319.199 142.745 319.27 142.916 319.271 143.095V144.634C319.271 145.007 318.968 145.306 318.596 145.306H317.056C316.878 145.305 316.708 145.234 316.582 145.109C316.456 144.983 316.385 144.812 316.384 144.634V143.095C316.385 142.917 316.456 142.746 316.582 142.62C316.708 142.494 316.878 142.423 317.056 142.423ZM301.232 148.244H302.772C302.95 148.245 303.12 148.316 303.246 148.441C303.372 148.567 303.443 148.738 303.444 148.916V150.459C303.443 150.637 303.372 150.807 303.246 150.933C303.12 151.059 302.95 151.13 302.772 151.131H301.232C301.054 151.131 300.883 151.06 300.757 150.934C300.631 150.808 300.56 150.637 300.56 150.459V148.919C300.56 148.831 300.577 148.743 300.61 148.661C300.644 148.579 300.693 148.504 300.756 148.441C300.818 148.379 300.892 148.329 300.974 148.295C301.056 148.261 301.144 148.244 301.232 148.244ZM306.571 148.244H308.111C308.289 148.245 308.459 148.316 308.585 148.441C308.711 148.567 308.782 148.738 308.783 148.916V150.459C308.782 150.637 308.711 150.807 308.585 150.933C308.459 151.059 308.289 151.13 308.111 151.131H306.571C306.393 151.13 306.222 151.059 306.096 150.933C305.97 150.807 305.899 150.637 305.899 150.459V148.919C305.898 148.831 305.915 148.743 305.949 148.661C305.982 148.579 306.032 148.504 306.094 148.442C306.157 148.379 306.231 148.329 306.313 148.295C306.394 148.261 306.482 148.244 306.571 148.244ZM311.91 148.244H313.449C313.628 148.244 313.799 148.314 313.926 148.44C314.053 148.566 314.124 148.737 314.125 148.916V150.459C314.124 150.637 314.053 150.808 313.926 150.934C313.799 151.06 313.628 151.131 313.449 151.131H311.91C311.732 151.13 311.561 151.059 311.435 150.933C311.31 150.807 311.238 150.637 311.238 150.459V148.919C311.238 148.741 311.308 148.569 311.434 148.443C311.56 148.316 311.731 148.245 311.91 148.244ZM306.379 136.168H307.918C308.096 136.169 308.267 136.24 308.393 136.366C308.518 136.492 308.589 136.662 308.59 136.84V138.38C308.59 138.753 308.287 139.053 307.918 139.053H306.379C306.201 139.052 306.03 138.981 305.904 138.855C305.778 138.729 305.707 138.558 305.706 138.38V136.84C305.706 136.752 305.723 136.665 305.757 136.583C305.791 136.501 305.84 136.427 305.903 136.365C305.965 136.302 306.039 136.253 306.121 136.219C306.203 136.185 306.29 136.168 306.379 136.168ZM311.717 136.168H313.257C313.435 136.169 313.605 136.24 313.731 136.366C313.857 136.492 313.928 136.662 313.929 136.84V138.38C313.929 138.753 313.626 139.053 313.257 139.053H311.717C311.538 139.053 311.367 138.982 311.241 138.856C311.114 138.73 311.043 138.559 311.042 138.38V136.84C311.044 136.662 311.116 136.492 311.242 136.366C311.368 136.24 311.539 136.169 311.717 136.168Z" fill="#E1E4E5"/>
<path d="M306.344 88.0537C313.204 86.4287 320.46 92.2467 320.46 92.2467C320.46 92.2467 316.588 100.696 309.726 102.316C302.866 103.941 295.613 98.1283 295.613 98.1283C295.613 98.1283 299.484 89.6792 306.344 88.0537Z" fill="url(#paint0_linear_103_803)"/>
<path d="M85.0635 32.885C87.2052 32.885 88.9414 34.2739 88.9414 35.9871C88.9414 37.7003 87.2052 39.0892 85.0635 39.0892C82.9217 39.0892 81.1855 37.7003 81.1855 35.9871C81.1855 34.2739 82.9217 32.885 85.0635 32.885Z" fill="#E1E4E5"/>
<path d="M55.5874 164.84C54.7015 161.534 56.6635 158.135 59.9697 157.249C63.2758 156.363 66.6741 158.325 67.56 161.632C68.4459 164.938 66.4839 168.336 63.1777 169.222C59.8716 170.108 56.4733 168.146 55.5874 164.84Z" fill="#E1E4E5"/>
<path d="M298.038 193.934C297.496 191.914 298.695 189.838 300.715 189.297C302.735 188.755 304.811 189.954 305.352 191.974C305.893 193.994 304.695 196.07 302.675 196.611C300.655 197.152 298.579 195.954 298.038 193.934Z" fill="#E1E4E5"/>
</g>
<defs>
<linearGradient id="paint0_linear_103_803" x1="332.177" y1="84.0133" x2="272.125" y2="112.384" gradientUnits="userSpaceOnUse">
<stop stop-color="white"/>
<stop offset="1" stop-color="#EEEEEE"/>
</linearGradient>
<clipPath id="clip0_103_803">
<rect width="375" height="250" fill="white"/>
</clipPath>
</defs>
</svg>
